<mxfile host="Electron" modified="2023-11-28T08:59:11.087Z" agent="Mozilla/5.0 (Windows NT 10.0; Win64; x64) AppleWebKit/537.36 (KHTML, like Gecko) draw.io/22.0.3 Chrome/114.0.5735.289 Electron/25.8.4 Safari/537.36" etag="xQkGm46UOpKYpwkB-cSj" version="22.0.3" type="device">
  <diagram name="Page-1" id="Zv1e_WZq_rf9GFrqSUBa">
    <mxGraphModel dx="778" dy="495" grid="1" gridSize="10" guides="1" tooltips="1" connect="1" arrows="1" fold="1" page="1" pageScale="1" pageWidth="850" pageHeight="1100" math="0" shadow="0">
      <root>
        <mxCell id="0" />
        <mxCell id="1" parent="0" />
        <mxCell id="vbeRXBi6qXcWu_VqXJq--1" value="" style="rounded=0;whiteSpace=wrap;html=1;" parent="1" vertex="1">
          <mxGeometry x="50" y="70" width="360" height="170" as="geometry" />
        </mxCell>
        <mxCell id="vbeRXBi6qXcWu_VqXJq--2" value="" style="endArrow=none;html=1;rounded=0;exitX=0;exitY=0.25;exitDx=0;exitDy=0;entryX=1;entryY=0.25;entryDx=0;entryDy=0;" parent="1" source="vbeRXBi6qXcWu_VqXJq--1" target="vbeRXBi6qXcWu_VqXJq--1" edge="1">
          <mxGeometry width="50" height="50" relative="1" as="geometry">
            <mxPoint x="380" y="280" as="sourcePoint" />
            <mxPoint x="430" y="230" as="targetPoint" />
          </mxGeometry>
        </mxCell>
        <mxCell id="vbeRXBi6qXcWu_VqXJq--3" value="Logo" style="text;html=1;strokeColor=none;fillColor=none;align=center;verticalAlign=middle;whiteSpace=wrap;rounded=0;" parent="1" vertex="1">
          <mxGeometry x="180" y="79" width="60" height="30" as="geometry" />
        </mxCell>
        <mxCell id="vbeRXBi6qXcWu_VqXJq--4" value="Username" style="text;html=1;strokeColor=none;fillColor=none;align=center;verticalAlign=middle;whiteSpace=wrap;rounded=0;" parent="1" vertex="1">
          <mxGeometry x="100" y="140" width="60" height="30" as="geometry" />
        </mxCell>
        <mxCell id="vbeRXBi6qXcWu_VqXJq--5" value="Password" style="text;html=1;strokeColor=none;fillColor=none;align=center;verticalAlign=middle;whiteSpace=wrap;rounded=0;" parent="1" vertex="1">
          <mxGeometry x="100" y="180" width="60" height="30" as="geometry" />
        </mxCell>
        <mxCell id="vbeRXBi6qXcWu_VqXJq--6" value="Login" style="rounded=1;whiteSpace=wrap;html=1;" parent="1" vertex="1">
          <mxGeometry x="330" y="139" width="60" height="25" as="geometry" />
        </mxCell>
        <mxCell id="vbeRXBi6qXcWu_VqXJq--7" value="Register" style="rounded=1;whiteSpace=wrap;html=1;" parent="1" vertex="1">
          <mxGeometry x="320" y="329" width="60" height="25" as="geometry" />
        </mxCell>
        <mxCell id="vbeRXBi6qXcWu_VqXJq--8" value="" style="rounded=0;whiteSpace=wrap;html=1;" parent="1" vertex="1">
          <mxGeometry x="180" y="142" width="120" height="20" as="geometry" />
        </mxCell>
        <mxCell id="vbeRXBi6qXcWu_VqXJq--9" value="" style="rounded=0;whiteSpace=wrap;html=1;" parent="1" vertex="1">
          <mxGeometry x="180" y="183" width="120" height="20" as="geometry" />
        </mxCell>
        <mxCell id="vbeRXBi6qXcWu_VqXJq--10" value="" style="rounded=0;whiteSpace=wrap;html=1;" parent="1" vertex="1">
          <mxGeometry x="50" y="280" width="360" height="170" as="geometry" />
        </mxCell>
        <mxCell id="vbeRXBi6qXcWu_VqXJq--11" value="Logo" style="text;html=1;strokeColor=none;fillColor=none;align=center;verticalAlign=middle;whiteSpace=wrap;rounded=0;" parent="1" vertex="1">
          <mxGeometry x="200" y="290" width="60" height="30" as="geometry" />
        </mxCell>
        <mxCell id="vbeRXBi6qXcWu_VqXJq--14" value="" style="endArrow=none;html=1;rounded=0;exitX=0;exitY=0.25;exitDx=0;exitDy=0;entryX=1;entryY=0.25;entryDx=0;entryDy=0;" parent="1" edge="1">
          <mxGeometry width="50" height="50" relative="1" as="geometry">
            <mxPoint x="50" y="315" as="sourcePoint" />
            <mxPoint x="410" y="315" as="targetPoint" />
          </mxGeometry>
        </mxCell>
        <mxCell id="vbeRXBi6qXcWu_VqXJq--15" value="Catalogue Name" style="rounded=0;whiteSpace=wrap;html=1;" parent="1" vertex="1">
          <mxGeometry x="60" y="320" width="110" height="20" as="geometry" />
        </mxCell>
        <mxCell id="vbeRXBi6qXcWu_VqXJq--16" value="Details" style="rounded=0;whiteSpace=wrap;html=1;" parent="1" vertex="1">
          <mxGeometry x="170" y="320" width="120" height="20" as="geometry" />
        </mxCell>
        <mxCell id="vbeRXBi6qXcWu_VqXJq--17" value="Show" style="rounded=1;whiteSpace=wrap;html=1;" parent="1" vertex="1">
          <mxGeometry x="300" y="320" width="50" height="20" as="geometry" />
        </mxCell>
        <mxCell id="vbeRXBi6qXcWu_VqXJq--18" value="Catalogue Name" style="rounded=0;whiteSpace=wrap;html=1;" parent="1" vertex="1">
          <mxGeometry x="60" y="354" width="110" height="20" as="geometry" />
        </mxCell>
        <mxCell id="vbeRXBi6qXcWu_VqXJq--19" value="Details" style="rounded=0;whiteSpace=wrap;html=1;" parent="1" vertex="1">
          <mxGeometry x="170" y="354" width="120" height="20" as="geometry" />
        </mxCell>
        <mxCell id="vbeRXBi6qXcWu_VqXJq--21" value="Catalogue Name" style="rounded=0;whiteSpace=wrap;html=1;" parent="1" vertex="1">
          <mxGeometry x="60" y="390" width="110" height="20" as="geometry" />
        </mxCell>
        <mxCell id="vbeRXBi6qXcWu_VqXJq--22" value="Details" style="rounded=0;whiteSpace=wrap;html=1;" parent="1" vertex="1">
          <mxGeometry x="170" y="390" width="120" height="20" as="geometry" />
        </mxCell>
        <mxCell id="vbeRXBi6qXcWu_VqXJq--24" value="Logout" style="rounded=1;whiteSpace=wrap;html=1;" parent="1" vertex="1">
          <mxGeometry x="110" y="420" width="90" height="20" as="geometry" />
        </mxCell>
        <mxCell id="vbeRXBi6qXcWu_VqXJq--25" value="Delete" style="rounded=1;whiteSpace=wrap;html=1;" parent="1" vertex="1">
          <mxGeometry x="355" y="320" width="50" height="20" as="geometry" />
        </mxCell>
        <mxCell id="vbeRXBi6qXcWu_VqXJq--27" value="Show" style="rounded=1;whiteSpace=wrap;html=1;" parent="1" vertex="1">
          <mxGeometry x="300" y="355" width="50" height="20" as="geometry" />
        </mxCell>
        <mxCell id="vbeRXBi6qXcWu_VqXJq--28" value="Delete" style="rounded=1;whiteSpace=wrap;html=1;" parent="1" vertex="1">
          <mxGeometry x="356" y="355" width="50" height="20" as="geometry" />
        </mxCell>
        <mxCell id="vbeRXBi6qXcWu_VqXJq--30" value="Show" style="rounded=1;whiteSpace=wrap;html=1;" parent="1" vertex="1">
          <mxGeometry x="300" y="390" width="50" height="20" as="geometry" />
        </mxCell>
        <mxCell id="vbeRXBi6qXcWu_VqXJq--31" value="Delete" style="rounded=1;whiteSpace=wrap;html=1;" parent="1" vertex="1">
          <mxGeometry x="355" y="390" width="50" height="20" as="geometry" />
        </mxCell>
        <mxCell id="vbeRXBi6qXcWu_VqXJq--32" value="Login Screen" style="text;html=1;strokeColor=none;fillColor=none;align=center;verticalAlign=middle;whiteSpace=wrap;rounded=0;fontStyle=1" parent="1" vertex="1">
          <mxGeometry x="50" y="79" width="100" height="30" as="geometry" />
        </mxCell>
        <mxCell id="vbeRXBi6qXcWu_VqXJq--34" value="Home Screen" style="text;html=1;strokeColor=none;fillColor=none;align=center;verticalAlign=middle;whiteSpace=wrap;rounded=0;fontStyle=1" parent="1" vertex="1">
          <mxGeometry x="60" y="280" width="100" height="30" as="geometry" />
        </mxCell>
        <mxCell id="vbeRXBi6qXcWu_VqXJq--35" value="Register" style="rounded=1;whiteSpace=wrap;html=1;" parent="1" vertex="1">
          <mxGeometry x="315" y="539" width="60" height="25" as="geometry" />
        </mxCell>
        <mxCell id="vbeRXBi6qXcWu_VqXJq--36" value="" style="rounded=0;whiteSpace=wrap;html=1;" parent="1" vertex="1">
          <mxGeometry x="45" y="490" width="425" height="170" as="geometry" />
        </mxCell>
        <mxCell id="vbeRXBi6qXcWu_VqXJq--37" value="Logo" style="text;html=1;strokeColor=none;fillColor=none;align=center;verticalAlign=middle;whiteSpace=wrap;rounded=0;" parent="1" vertex="1">
          <mxGeometry x="195" y="500" width="60" height="30" as="geometry" />
        </mxCell>
        <mxCell id="vbeRXBi6qXcWu_VqXJq--38" value="" style="endArrow=none;html=1;rounded=0;exitX=0;exitY=0.25;exitDx=0;exitDy=0;entryX=0.995;entryY=0.206;entryDx=0;entryDy=0;entryPerimeter=0;" parent="1" target="vbeRXBi6qXcWu_VqXJq--36" edge="1">
          <mxGeometry width="50" height="50" relative="1" as="geometry">
            <mxPoint x="45" y="525" as="sourcePoint" />
            <mxPoint x="405" y="525" as="targetPoint" />
          </mxGeometry>
        </mxCell>
        <mxCell id="vbeRXBi6qXcWu_VqXJq--39" value="Catalogue item Name" style="rounded=0;whiteSpace=wrap;html=1;" parent="1" vertex="1">
          <mxGeometry x="55" y="530" width="125" height="20" as="geometry" />
        </mxCell>
        <mxCell id="vbeRXBi6qXcWu_VqXJq--40" value="Details" style="rounded=0;whiteSpace=wrap;html=1;" parent="1" vertex="1">
          <mxGeometry x="180" y="530" width="105" height="20" as="geometry" />
        </mxCell>
        <mxCell id="vbeRXBi6qXcWu_VqXJq--41" value="Show" style="rounded=1;whiteSpace=wrap;html=1;" parent="1" vertex="1">
          <mxGeometry x="295" y="530" width="50" height="20" as="geometry" />
        </mxCell>
        <mxCell id="vbeRXBi6qXcWu_VqXJq--46" value="Logout" style="rounded=1;whiteSpace=wrap;html=1;" parent="1" vertex="1">
          <mxGeometry x="105" y="630" width="90" height="20" as="geometry" />
        </mxCell>
        <mxCell id="vbeRXBi6qXcWu_VqXJq--47" value="Delete" style="rounded=1;whiteSpace=wrap;html=1;" parent="1" vertex="1">
          <mxGeometry x="350" y="530" width="50" height="20" as="geometry" />
        </mxCell>
        <mxCell id="vbeRXBi6qXcWu_VqXJq--48" value="Show" style="rounded=1;whiteSpace=wrap;html=1;" parent="1" vertex="1">
          <mxGeometry x="295" y="565" width="50" height="20" as="geometry" />
        </mxCell>
        <mxCell id="vbeRXBi6qXcWu_VqXJq--49" value="Delete" style="rounded=1;whiteSpace=wrap;html=1;" parent="1" vertex="1">
          <mxGeometry x="351" y="565" width="50" height="20" as="geometry" />
        </mxCell>
        <mxCell id="vbeRXBi6qXcWu_VqXJq--50" value="Show" style="rounded=1;whiteSpace=wrap;html=1;" parent="1" vertex="1">
          <mxGeometry x="295" y="600" width="50" height="20" as="geometry" />
        </mxCell>
        <mxCell id="vbeRXBi6qXcWu_VqXJq--51" value="Delete" style="rounded=1;whiteSpace=wrap;html=1;" parent="1" vertex="1">
          <mxGeometry x="350" y="600" width="50" height="20" as="geometry" />
        </mxCell>
        <mxCell id="vbeRXBi6qXcWu_VqXJq--52" value="Catalogue screen" style="text;html=1;strokeColor=none;fillColor=none;align=center;verticalAlign=middle;whiteSpace=wrap;rounded=0;fontStyle=1" parent="1" vertex="1">
          <mxGeometry x="55" y="490" width="115" height="30" as="geometry" />
        </mxCell>
        <mxCell id="vbeRXBi6qXcWu_VqXJq--53" value="Catalogue item Name" style="rounded=0;whiteSpace=wrap;html=1;" parent="1" vertex="1">
          <mxGeometry x="55" y="565" width="125" height="20" as="geometry" />
        </mxCell>
        <mxCell id="vbeRXBi6qXcWu_VqXJq--54" value="Details" style="rounded=0;whiteSpace=wrap;html=1;" parent="1" vertex="1">
          <mxGeometry x="177.5" y="565" width="105" height="20" as="geometry" />
        </mxCell>
        <mxCell id="vbeRXBi6qXcWu_VqXJq--56" value="Catalogue item Name" style="rounded=0;whiteSpace=wrap;html=1;" parent="1" vertex="1">
          <mxGeometry x="55" y="600" width="125" height="20" as="geometry" />
        </mxCell>
        <mxCell id="vbeRXBi6qXcWu_VqXJq--57" value="Details" style="rounded=0;whiteSpace=wrap;html=1;" parent="1" vertex="1">
          <mxGeometry x="180" y="600" width="105" height="20" as="geometry" />
        </mxCell>
        <mxCell id="vbeRXBi6qXcWu_VqXJq--58" value="Edit" style="rounded=1;whiteSpace=wrap;html=1;" parent="1" vertex="1">
          <mxGeometry x="406" y="530" width="50" height="20" as="geometry" />
        </mxCell>
        <mxCell id="vbeRXBi6qXcWu_VqXJq--59" value="Edit" style="rounded=1;whiteSpace=wrap;html=1;" parent="1" vertex="1">
          <mxGeometry x="406" y="564" width="50" height="20" as="geometry" />
        </mxCell>
        <mxCell id="vbeRXBi6qXcWu_VqXJq--61" value="Edit" style="rounded=1;whiteSpace=wrap;html=1;" parent="1" vertex="1">
          <mxGeometry x="409" y="599" width="50" height="20" as="geometry" />
        </mxCell>
        <mxCell id="vbeRXBi6qXcWu_VqXJq--62" value="Back" style="rounded=1;whiteSpace=wrap;html=1;" parent="1" vertex="1">
          <mxGeometry x="230" y="630" width="90" height="20" as="geometry" />
        </mxCell>
        <mxCell id="vbeRXBi6qXcWu_VqXJq--63" value="" style="rounded=0;whiteSpace=wrap;html=1;" parent="1" vertex="1">
          <mxGeometry x="440" y="79" width="360" height="291" as="geometry" />
        </mxCell>
        <mxCell id="vbeRXBi6qXcWu_VqXJq--64" value="" style="endArrow=none;html=1;rounded=0;exitX=0;exitY=0.25;exitDx=0;exitDy=0;entryX=1;entryY=0.25;entryDx=0;entryDy=0;" parent="1" edge="1">
          <mxGeometry width="50" height="50" relative="1" as="geometry">
            <mxPoint x="440" y="122.75" as="sourcePoint" />
            <mxPoint x="800" y="122.75" as="targetPoint" />
          </mxGeometry>
        </mxCell>
        <mxCell id="vbeRXBi6qXcWu_VqXJq--65" value="Logo" style="text;html=1;strokeColor=none;fillColor=none;align=center;verticalAlign=middle;whiteSpace=wrap;rounded=0;" parent="1" vertex="1">
          <mxGeometry x="570" y="88" width="60" height="30" as="geometry" />
        </mxCell>
        <mxCell id="vbeRXBi6qXcWu_VqXJq--66" value="Username" style="text;html=1;strokeColor=none;fillColor=none;align=center;verticalAlign=middle;whiteSpace=wrap;rounded=0;" parent="1" vertex="1">
          <mxGeometry x="454" y="132" width="60" height="30" as="geometry" />
        </mxCell>
        <mxCell id="vbeRXBi6qXcWu_VqXJq--67" value="Password" style="text;html=1;strokeColor=none;fillColor=none;align=center;verticalAlign=middle;whiteSpace=wrap;rounded=0;" parent="1" vertex="1">
          <mxGeometry x="454" y="172" width="60" height="30" as="geometry" />
        </mxCell>
        <mxCell id="vbeRXBi6qXcWu_VqXJq--68" value="Register" style="rounded=1;whiteSpace=wrap;html=1;" parent="1" vertex="1">
          <mxGeometry x="720" y="187" width="60" height="25" as="geometry" />
        </mxCell>
        <mxCell id="vbeRXBi6qXcWu_VqXJq--69" value="" style="rounded=0;whiteSpace=wrap;html=1;" parent="1" vertex="1">
          <mxGeometry x="534" y="134" width="120" height="20" as="geometry" />
        </mxCell>
        <mxCell id="vbeRXBi6qXcWu_VqXJq--70" value="" style="rounded=0;whiteSpace=wrap;html=1;" parent="1" vertex="1">
          <mxGeometry x="535" y="175" width="120" height="20" as="geometry" />
        </mxCell>
        <mxCell id="vbeRXBi6qXcWu_VqXJq--71" value="Regster Screen" style="text;html=1;strokeColor=none;fillColor=none;align=center;verticalAlign=middle;whiteSpace=wrap;rounded=0;fontStyle=1" parent="1" vertex="1">
          <mxGeometry x="440" y="88" width="100" height="30" as="geometry" />
        </mxCell>
        <mxCell id="vbeRXBi6qXcWu_VqXJq--72" value="Register" style="rounded=1;whiteSpace=wrap;html=1;" parent="1" vertex="1">
          <mxGeometry x="331" y="177" width="60" height="25" as="geometry" />
        </mxCell>
        <mxCell id="vbeRXBi6qXcWu_VqXJq--73" value="First Name" style="text;html=1;strokeColor=none;fillColor=none;align=center;verticalAlign=middle;whiteSpace=wrap;rounded=0;" parent="1" vertex="1">
          <mxGeometry x="454" y="210" width="66" height="30" as="geometry" />
        </mxCell>
        <mxCell id="vbeRXBi6qXcWu_VqXJq--74" value="Second Name" style="text;html=1;strokeColor=none;fillColor=none;align=center;verticalAlign=middle;whiteSpace=wrap;rounded=0;" parent="1" vertex="1">
          <mxGeometry x="443" y="250" width="86" height="30" as="geometry" />
        </mxCell>
        <mxCell id="vbeRXBi6qXcWu_VqXJq--75" value="" style="rounded=0;whiteSpace=wrap;html=1;" parent="1" vertex="1">
          <mxGeometry x="534" y="212" width="120" height="20" as="geometry" />
        </mxCell>
        <mxCell id="vbeRXBi6qXcWu_VqXJq--76" value="" style="rounded=0;whiteSpace=wrap;html=1;" parent="1" vertex="1">
          <mxGeometry x="535" y="253" width="120" height="20" as="geometry" />
        </mxCell>
        <mxCell id="vbeRXBi6qXcWu_VqXJq--77" value="Email" style="text;html=1;strokeColor=none;fillColor=none;align=center;verticalAlign=middle;whiteSpace=wrap;rounded=0;" parent="1" vertex="1">
          <mxGeometry x="456" y="284" width="60" height="30" as="geometry" />
        </mxCell>
        <mxCell id="vbeRXBi6qXcWu_VqXJq--78" value="Address" style="text;html=1;strokeColor=none;fillColor=none;align=center;verticalAlign=middle;whiteSpace=wrap;rounded=0;" parent="1" vertex="1">
          <mxGeometry x="456" y="324" width="60" height="30" as="geometry" />
        </mxCell>
        <mxCell id="vbeRXBi6qXcWu_VqXJq--79" value="" style="rounded=0;whiteSpace=wrap;html=1;" parent="1" vertex="1">
          <mxGeometry x="536" y="286" width="120" height="20" as="geometry" />
        </mxCell>
        <mxCell id="vbeRXBi6qXcWu_VqXJq--80" value="" style="rounded=0;whiteSpace=wrap;html=1;" parent="1" vertex="1">
          <mxGeometry x="537" y="327" width="120" height="20" as="geometry" />
        </mxCell>
      </root>
    </mxGraphModel>
  </diagram>
</mxfile>
